<?xml version="1.0" encoding="UTF-8"?>
<!DOCTYPE svg PUBLIC "-//W3C//DTD SVG 1.1//EN" "http://www.w3.org/Graphics/SVG/1.1/DTD/svg11.dtd">
<svg xmlns="http://www.w3.org/2000/svg" version="1.1" width="128px" height="128px" style="shape-rendering:geometricPrecision; text-rendering:geometricPrecision; image-rendering:optimizeQuality; fill-rule:evenodd; clip-rule:evenodd" xmlns:xlink="http://www.w3.org/1999/xlink">
<g><path style="opacity:0.004" fill="#000000" d="M 43.5,-0.5 C 44.8333,-0.5 46.1667,-0.5 47.5,-0.5C 47.5,-0.166667 47.5,0.166667 47.5,0.5C 46.4324,1.43448 45.099,1.76781 43.5,1.5C 43.5,0.833333 43.5,0.166667 43.5,-0.5 Z"/></g>
<g><path style="opacity:0.94" fill="#fefefe" d="M 51.5,-0.5 C 59.5,-0.5 67.5,-0.5 75.5,-0.5C 76.5676,0.434475 77.901,0.767809 79.5,0.5C 80.5676,1.43448 81.901,1.76781 83.5,1.5C 84.7804,2.93127 86.4471,3.59794 88.5,3.5C 90.9287,4.55117 93.262,5.8845 95.5,7.5C 95.8333,7.5 96.1667,7.5 96.5,7.5C 97.2905,8.40128 98.2905,9.06795 99.5,9.5C 100.29,10.4013 101.29,11.0679 102.5,11.5C 103.945,13.0627 105.611,14.396 107.5,15.5C 108.5,17.1667 109.833,18.5 111.5,19.5C 112.604,21.3885 113.937,23.0552 115.5,24.5C 115.932,25.7095 116.599,26.7095 117.5,27.5C 117.932,28.7095 118.599,29.7095 119.5,30.5C 119.5,30.8333 119.5,31.1667 119.5,31.5C 121.116,33.738 122.449,36.0713 123.5,38.5C 123.402,40.5529 124.069,42.2196 125.5,43.5C 125.232,45.099 125.566,46.4324 126.5,47.5C 126.232,49.099 126.566,50.4324 127.5,51.5C 127.5,55.8333 127.5,60.1667 127.5,64.5C 124.64,63.0649 121.973,61.3982 119.5,59.5C 118.5,57.8333 117.167,56.5 115.5,55.5C 114.205,54.5116 112.872,53.5116 111.5,52.5C 111.5,51.8333 111.167,51.5 110.5,51.5C 109.71,50.5987 108.71,49.9321 107.5,49.5C 107.167,48.5 106.5,47.8333 105.5,47.5C 105.167,46.5 104.5,45.8333 103.5,45.5C 97.8892,40.9009 92.2225,36.2342 86.5,31.5C 85.7095,30.5987 84.7095,29.9321 83.5,29.5C 79.8784,25.6925 75.8784,22.3591 71.5,19.5C 70.5,17.8333 69.1667,16.5 67.5,15.5C 66.3117,14.6364 65.1451,13.6364 64,12.5C 62.3333,13.7332 60.8333,15.0665 59.5,16.5C 58.1667,17.1667 57.1667,18.1667 56.5,19.5C 55.8333,19.5 55.5,19.8333 55.5,20.5C 53.5956,20.7376 52.2623,21.7376 51.5,23.5C 50.1283,24.5116 48.795,25.5116 47.5,26.5C 44.4181,28.3719 41.7514,30.7052 39.5,33.5C 38.5,33.8333 37.8333,34.5 37.5,35.5C 34.865,36.4735 32.865,38.1402 31.5,40.5C 29.5956,40.7376 28.2623,41.7376 27.5,43.5C 24.8386,45.4628 22.172,47.4628 19.5,49.5C 18.5,49.8333 17.8333,50.5 17.5,51.5C 16.5,51.8333 15.8333,52.5 15.5,53.5C 14.2905,53.9321 13.2905,54.5987 12.5,55.5C 11.8333,55.5 11.5,55.8333 11.5,56.5C 10.1667,57.1667 9.16667,58.1667 8.5,59.5C 5.51776,61.4742 2.51776,63.4742 -0.5,65.5C -0.5,60.8333 -0.5,56.1667 -0.5,51.5C 0.434475,50.4324 0.767809,49.099 0.5,47.5C 1.43448,46.4324 1.76781,45.099 1.5,43.5C 2.93127,42.2196 3.59794,40.5529 3.5,38.5C 4.55117,36.0713 5.8845,33.738 7.5,31.5C 7.5,31.1667 7.5,30.8333 7.5,30.5C 8.40128,29.7095 9.06795,28.7095 9.5,27.5C 10.4013,26.7095 11.0679,25.7095 11.5,24.5C 13.0627,23.0552 14.396,21.3885 15.5,19.5C 17.1667,18.5 18.5,17.1667 19.5,15.5C 21.3885,14.396 23.0552,13.0627 24.5,11.5C 25.7095,11.0679 26.7095,10.4013 27.5,9.5C 28.7095,9.06795 29.7095,8.40128 30.5,7.5C 30.8333,7.5 31.1667,7.5 31.5,7.5C 33.738,5.8845 36.0713,4.55117 38.5,3.5C 40.5529,3.59794 42.2196,2.93127 43.5,1.5C 45.099,1.76781 46.4324,1.43448 47.5,0.5C 49.099,0.767809 50.4324,0.434475 51.5,-0.5 Z"/></g>
<g><path style="opacity:0.004" fill="#000000" d="M 79.5,-0.5 C 80.8333,-0.5 82.1667,-0.5 83.5,-0.5C 83.5,0.166667 83.5,0.833333 83.5,1.5C 81.901,1.76781 80.5676,1.43448 79.5,0.5C 79.5,0.166667 79.5,-0.166667 79.5,-0.5 Z"/></g>
<g><path style="opacity:0.005" fill="#000000" d="M 38.5,3.5 C 36.0713,4.55117 33.738,5.8845 31.5,7.5C 31.5,6.16667 31.5,4.83333 31.5,3.5C 33.8333,3.5 36.1667,3.5 38.5,3.5 Z"/></g>
<g><path style="opacity:0.006" fill="#000000" d="M 88.5,3.5 C 90.8333,3.5 93.1667,3.5 95.5,3.5C 95.5,4.83333 95.5,6.16667 95.5,7.5C 93.262,5.8845 90.9287,4.55117 88.5,3.5 Z"/></g>
<g><path style="opacity:0.02" fill="#000000" d="M 30.5,7.5 C 29.7095,8.40128 28.7095,9.06795 27.5,9.5C 27.8212,7.95186 28.8212,7.28519 30.5,7.5 Z"/></g>
<g><path style="opacity:0.02" fill="#000000" d="M 96.5,7.5 C 98.1788,7.28519 99.1788,7.95186 99.5,9.5C 98.2905,9.06795 97.2905,8.40128 96.5,7.5 Z"/></g>
<g><path style="opacity:0.005" fill="#000000" d="M 24.5,11.5 C 23.0552,13.0627 21.3885,14.396 19.5,15.5C 19.5,14.1667 19.5,12.8333 19.5,11.5C 21.1667,11.5 22.8333,11.5 24.5,11.5 Z"/></g>
<g><path style="opacity:0.005" fill="#000000" d="M 102.5,11.5 C 104.167,11.5 105.833,11.5 107.5,11.5C 107.5,12.8333 107.5,14.1667 107.5,15.5C 105.611,14.396 103.945,13.0627 102.5,11.5 Z"/></g>
<g><path style="opacity:0.004" fill="#000000" d="M 67.5,15.5 C 69.1667,16.5 70.5,17.8333 71.5,19.5C 70.1667,19.5 68.8333,19.5 67.5,19.5C 67.5,18.1667 67.5,16.8333 67.5,15.5 Z"/></g>
<g><path style="opacity:0.008" fill="#000000" d="M 59.5,16.5 C 59.5,17.5 59.5,18.5 59.5,19.5C 58.5,19.5 57.5,19.5 56.5,19.5C 57.1667,18.1667 58.1667,17.1667 59.5,16.5 Z"/></g>
<g><path style="opacity:0.005" fill="#000000" d="M 15.5,19.5 C 14.396,21.3885 13.0627,23.0552 11.5,24.5C 11.5,22.8333 11.5,21.1667 11.5,19.5C 12.8333,19.5 14.1667,19.5 15.5,19.5 Z"/></g>
<g><path style="opacity:0.005" fill="#000000" d="M 111.5,19.5 C 112.833,19.5 114.167,19.5 115.5,19.5C 115.5,21.1667 115.5,22.8333 115.5,24.5C 113.937,23.0552 112.604,21.3885 111.5,19.5 Z"/></g>
<g><path style="opacity:0.004" fill="#000000" d="M 55.5,20.5 C 55.5,21.5 55.5,22.5 55.5,23.5C 54.1667,23.5 52.8333,23.5 51.5,23.5C 52.2623,21.7376 53.5956,20.7376 55.5,20.5 Z"/></g>
<g><path style="opacity:0.008" fill="#000000" d="M 51.5,23.5 C 51.5,24.8333 51.5,26.1667 51.5,27.5C 49.901,27.7678 48.5676,27.4345 47.5,26.5C 48.795,25.5116 50.1283,24.5116 51.5,23.5 Z"/></g>
<g><path style="opacity:0.02" fill="#000000" d="M 9.5,27.5 C 9.06795,28.7095 8.40128,29.7095 7.5,30.5C 7.28519,28.8212 7.95186,27.8212 9.5,27.5 Z"/></g>
<g><path style="opacity:0.02" fill="#000000" d="M 117.5,27.5 C 119.048,27.8212 119.715,28.8212 119.5,30.5C 118.599,29.7095 117.932,28.7095 117.5,27.5 Z"/></g>
<g><path style="opacity:0.004" fill="#000000" d="M 83.5,29.5 C 84.7095,29.9321 85.7095,30.5987 86.5,31.5C 84.8212,31.7148 83.8212,31.0481 83.5,29.5 Z"/></g>
<g><path style="opacity:0.005" fill="#000000" d="M 7.5,31.5 C 5.8845,33.738 4.55117,36.0713 3.5,38.5C 3.5,36.1667 3.5,33.8333 3.5,31.5C 4.83333,31.5 6.16667,31.5 7.5,31.5 Z"/></g>
<g><path style="opacity:0.006" fill="#000000" d="M 119.5,31.5 C 120.833,31.5 122.167,31.5 123.5,31.5C 123.5,33.8333 123.5,36.1667 123.5,38.5C 122.449,36.0713 121.116,33.738 119.5,31.5 Z"/></g>
<g><path style="opacity:0.004" fill="#000000" d="M 39.5,33.5 C 39.5,34.8333 38.8333,35.5 37.5,35.5C 37.8333,34.5 38.5,33.8333 39.5,33.5 Z"/></g>
<g><path style="opacity:0.004" fill="#000000" d="M 31.5,40.5 C 31.5,41.5 31.5,42.5 31.5,43.5C 30.1667,43.5 28.8333,43.5 27.5,43.5C 28.2623,41.7376 29.5956,40.7376 31.5,40.5 Z"/></g>
<g><path style="opacity:0.944" fill="#fefefe" d="M 67.5,43.5 C 68.4363,44.9744 69.7697,45.9744 71.5,46.5C 71.5,47.1667 71.8333,47.5 72.5,47.5C 73.1667,48.8333 74.1667,49.8333 75.5,50.5C 79.6168,53.6585 83.6168,56.9919 87.5,60.5C 88.8333,61.5 90.1667,62.5 91.5,63.5C 92.4363,64.9744 93.7697,65.9744 95.5,66.5C 96.8908,68.8903 98.8908,70.5569 101.5,71.5C 101.833,72.5 102.5,73.1667 103.5,73.5C 103.973,74.9063 104.973,75.573 106.5,75.5C 107.585,77.5869 109.251,78.9202 111.5,79.5C 112.5,81.1667 113.833,82.5 115.5,83.5C 116.579,85.543 118.246,86.8763 120.5,87.5C 121.6,88.6049 122.267,89.9382 122.5,91.5C 120.75,92.6594 119.75,94.326 119.5,96.5C 118.599,97.2905 117.932,98.2905 117.5,99.5C 116.599,100.29 115.932,101.29 115.5,102.5C 113.937,103.945 112.604,105.611 111.5,107.5C 110.395,108.6 109.062,109.267 107.5,109.5C 102.421,104.085 96.7543,99.418 90.5,95.5C 89.8333,94.1667 88.8333,93.1667 87.5,92.5C 87.5,91.8333 87.1667,91.5 86.5,91.5C 85.7095,90.5987 84.7095,89.9321 83.5,89.5C 82.713,87.8958 81.3797,87.2291 79.5,87.5C 79.5323,85.3812 78.5323,84.0478 76.5,83.5C 75.0552,81.9373 73.3885,80.604 71.5,79.5C 70.7377,77.7376 69.4044,76.7376 67.5,76.5C 66.7934,74.8656 65.6268,73.5323 64,72.5C 63.6012,72.7284 63.4346,73.0618 63.5,73.5C 62.5,73.8333 61.8333,74.5 61.5,75.5C 53.72,81.0428 46.3867,87.0428 39.5,93.5C 38.5,93.8333 37.8333,94.5 37.5,95.5C 36.8333,95.8333 36.1667,96.1667 35.5,96.5C 34.1667,97.1667 33.1667,98.1667 32.5,99.5C 31.8333,99.5 31.5,99.8333 31.5,100.5C 29.5956,100.738 28.2623,101.738 27.5,103.5C 25.6115,104.604 23.9448,105.937 22.5,107.5C 20.1667,110.167 17.8333,110.167 15.5,107.5C 14.396,105.611 13.0627,103.945 11.5,102.5C 11.0679,101.29 10.4013,100.29 9.5,99.5C 9.06795,98.2905 8.40128,97.2905 7.5,96.5C 7.5,96.1667 7.5,95.8333 7.5,95.5C 6.39952,94.3951 5.73286,93.0618 5.5,91.5C 5.36899,90.7611 5.53566,90.0944 6,89.5C 10.4891,85.3629 14.9891,81.3629 19.5,77.5C 20.5,77.1667 21.1667,76.5 21.5,75.5C 22.4916,75.6716 23.1583,75.3382 23.5,74.5C 24.8333,73.8333 25.8333,72.8333 26.5,71.5C 28.7488,70.9202 30.4154,69.5869 31.5,67.5C 32.8717,66.4884 34.205,65.4884 35.5,64.5C 39.817,61.5136 43.817,58.1803 47.5,54.5C 48.8333,53.8333 49.8333,52.8333 50.5,51.5C 50.8333,51.5 51.1667,51.5 51.5,51.5C 53.1667,50.5 54.5,49.1667 55.5,47.5C 58.4358,45.7447 61.2691,43.7447 64,41.5C 65.1127,42.305 66.2794,42.9717 67.5,43.5 Z"/></g>
<g><path style="opacity:0.004" fill="#000000" d="M -0.5,43.5 C 0.166667,43.5 0.833333,43.5 1.5,43.5C 1.76781,45.099 1.43448,46.4324 0.5,47.5C 0.166667,47.5 -0.166667,47.5 -0.5,47.5C -0.5,46.1667 -0.5,44.8333 -0.5,43.5 Z"/></g>
<g><path style="opacity:0.004" fill="#000000" d="M 67.5,43.5 C 68.8333,43.5 70.1667,43.5 71.5,43.5C 71.5,44.5 71.5,45.5 71.5,46.5C 69.7697,45.9744 68.4363,44.9744 67.5,43.5 Z"/></g>
<g><path style="opacity:0.004" fill="#000000" d="M 125.5,43.5 C 126.167,43.5 126.833,43.5 127.5,43.5C 127.5,44.8333 127.5,46.1667 127.5,47.5C 127.167,47.5 126.833,47.5 126.5,47.5C 125.566,46.4324 125.232,45.099 125.5,43.5 Z"/></g>
<g><path style="opacity:0.024" fill="#000000" d="M 103.5,45.5 C 104.5,45.8333 105.167,46.5 105.5,47.5C 104.167,47.5 103.5,46.8333 103.5,45.5 Z"/></g>
<g><path style="opacity:0.004" fill="#000000" d="M 55.5,47.5 C 54.5,49.1667 53.1667,50.5 51.5,51.5C 51.5,50.1667 51.5,48.8333 51.5,47.5C 52.8333,47.5 54.1667,47.5 55.5,47.5 Z"/></g>
<g><path style="opacity:0.004" fill="#000000" d="M 72.5,47.5 C 73.5,47.5 74.5,47.5 75.5,47.5C 75.5,48.5 75.5,49.5 75.5,50.5C 74.1667,49.8333 73.1667,48.8333 72.5,47.5 Z"/></g>
<g><path style="opacity:0.004" fill="#000000" d="M 19.5,49.5 C 19.5,50.8333 18.8333,51.5 17.5,51.5C 17.8333,50.5 18.5,49.8333 19.5,49.5 Z"/></g>
<g><path style="opacity:0.008" fill="#000000" d="M 107.5,49.5 C 108.71,49.9321 109.71,50.5987 110.5,51.5C 108.821,51.7148 107.821,51.0481 107.5,49.5 Z"/></g>
<g><path style="opacity:0.004" fill="#000000" d="M 50.5,51.5 C 49.8333,52.8333 48.8333,53.8333 47.5,54.5C 47.5,53.5 47.5,52.5 47.5,51.5C 48.5,51.5 49.5,51.5 50.5,51.5 Z"/></g>
<g><path style="opacity:0.004" fill="#000000" d="M 111.5,52.5 C 112.872,53.5116 114.205,54.5116 115.5,55.5C 114.167,55.5 112.833,55.5 111.5,55.5C 111.5,54.5 111.5,53.5 111.5,52.5 Z"/></g>
<g><path style="opacity:0.012" fill="#000000" d="M 15.5,53.5 C 15.1788,55.0481 14.1788,55.7148 12.5,55.5C 13.2905,54.5987 14.2905,53.9321 15.5,53.5 Z"/></g>
<g><path style="opacity:0.008" fill="#000000" d="M 115.5,55.5 C 117.167,56.5 118.5,57.8333 119.5,59.5C 118.167,59.5 116.833,59.5 115.5,59.5C 115.5,58.1667 115.5,56.8333 115.5,55.5 Z"/></g>
<g><path style="opacity:0.004" fill="#000000" d="M 11.5,56.5 C 11.5,57.5 11.5,58.5 11.5,59.5C 10.5,59.5 9.5,59.5 8.5,59.5C 9.16667,58.1667 10.1667,57.1667 11.5,56.5 Z"/></g>
<g><path style="opacity:0.004" fill="#000000" d="M 87.5,60.5 C 88.5676,59.5655 89.901,59.2322 91.5,59.5C 91.5,60.8333 91.5,62.1667 91.5,63.5C 90.1667,62.5 88.8333,61.5 87.5,60.5 Z"/></g>
<g><path style="opacity:0.004" fill="#000000" d="M 35.5,64.5 C 34.205,65.4884 32.8717,66.4884 31.5,67.5C 31.5,66.1667 31.5,64.8333 31.5,63.5C 33.099,63.2322 34.4324,63.5655 35.5,64.5 Z"/></g>
<g><path style="opacity:0.004" fill="#000000" d="M 91.5,63.5 C 92.8333,63.5 94.1667,63.5 95.5,63.5C 95.5,64.5 95.5,65.5 95.5,66.5C 93.7697,65.9744 92.4363,64.9744 91.5,63.5 Z"/></g>
<g><path style="opacity:0.008" fill="#000000" d="M 26.5,71.5 C 25.8333,72.8333 24.8333,73.8333 23.5,74.5C 23.5,73.5 23.5,72.5 23.5,71.5C 24.5,71.5 25.5,71.5 26.5,71.5 Z"/></g>
<g><path style="opacity:0.02" fill="#000000" d="M 101.5,71.5 C 102.833,71.5 103.5,72.1667 103.5,73.5C 102.5,73.1667 101.833,72.5 101.5,71.5 Z"/></g>
<g><path style="opacity:0.008" fill="#000000" d="M 63.5,73.5 C 63.5,74.8333 62.8333,75.5 61.5,75.5C 61.8333,74.5 62.5,73.8333 63.5,73.5 Z"/></g>
<g><path style="opacity:0.027" fill="#000000" d="M 21.5,75.5 C 21.1667,76.5 20.5,77.1667 19.5,77.5C 19.5,76.1667 20.1667,75.5 21.5,75.5 Z"/></g>
<g><path style="opacity:0.007" fill="#000000" d="M 106.5,75.5 C 108.167,75.5 109.833,75.5 111.5,75.5C 111.5,76.8333 111.5,78.1667 111.5,79.5C 109.251,78.9202 107.585,77.5869 106.5,75.5 Z"/></g>
<g><path style="opacity:0.008" fill="#000000" d="M 67.5,76.5 C 69.4044,76.7376 70.7377,77.7376 71.5,79.5C 70.1667,79.5 68.8333,79.5 67.5,79.5C 67.5,78.5 67.5,77.5 67.5,76.5 Z"/></g>
<g><path style="opacity:0.007" fill="#000000" d="M 71.5,79.5 C 73.3885,80.604 75.0552,81.9373 76.5,83.5C 74.8333,83.5 73.1667,83.5 71.5,83.5C 71.5,82.1667 71.5,80.8333 71.5,79.5 Z"/></g>
<g><path style="opacity:0.004" fill="#000000" d="M 111.5,79.5 C 112.833,79.5 114.167,79.5 115.5,79.5C 115.5,80.8333 115.5,82.1667 115.5,83.5C 113.833,82.5 112.5,81.1667 111.5,79.5 Z"/></g>
<g><path style="opacity:0.016" fill="#000000" d="M 120.5,87.5 C 121.5,87.5 122.5,87.5 123.5,87.5C 123.768,89.099 123.434,90.4324 122.5,91.5C 122.267,89.9382 121.6,88.6049 120.5,87.5 Z"/></g>
<g><path style="opacity:0.024" fill="#000000" d="M 83.5,89.5 C 84.7095,89.9321 85.7095,90.5987 86.5,91.5C 84.8212,91.7148 83.8212,91.0481 83.5,89.5 Z"/></g>
<g><path style="opacity:0.004" fill="#000000" d="M 5.5,91.5 C 5.73286,93.0618 6.39952,94.3951 7.5,95.5C 6.16667,95.5 4.83333,95.5 3.5,95.5C 3.15684,93.5168 3.82351,92.1834 5.5,91.5 Z"/></g>
<g><path style="opacity:0.012" fill="#000000" d="M 87.5,92.5 C 88.8333,93.1667 89.8333,94.1667 90.5,95.5C 89.5,95.5 88.5,95.5 87.5,95.5C 87.5,94.5 87.5,93.5 87.5,92.5 Z"/></g>
<g><path style="opacity:0.004" fill="#000000" d="M 39.5,93.5 C 39.5,94.8333 38.8333,95.5 37.5,95.5C 37.8333,94.5 38.5,93.8333 39.5,93.5 Z"/></g>
<g><path style="opacity:0.02" fill="#000000" d="M 7.5,96.5 C 8.40128,97.2905 9.06795,98.2905 9.5,99.5C 7.95186,99.1788 7.28519,98.1788 7.5,96.5 Z"/></g>
<g><path style="opacity:0.004" fill="#000000" d="M 35.5,96.5 C 35.5,97.5 35.5,98.5 35.5,99.5C 34.5,99.5 33.5,99.5 32.5,99.5C 33.1667,98.1667 34.1667,97.1667 35.5,96.5 Z"/></g>
<g><path style="opacity:0.02" fill="#000000" d="M 119.5,96.5 C 119.715,98.1788 119.048,99.1788 117.5,99.5C 117.932,98.2905 118.599,97.2905 119.5,96.5 Z"/></g>
<g><path style="opacity:0.004" fill="#000000" d="M 67.5,103.5 C 66.3951,102.4 65.0618,101.733 63.5,101.5C 64.1834,99.8235 65.5168,99.1568 67.5,99.5C 67.5,100.833 67.5,102.167 67.5,103.5 Z"/></g>
<g><path style="opacity:0.004" fill="#000000" d="M 31.5,100.5 C 31.5,101.5 31.5,102.5 31.5,103.5C 30.1667,103.5 28.8333,103.5 27.5,103.5C 28.2623,101.738 29.5956,100.738 31.5,100.5 Z"/></g>
<g><path style="opacity:0.918" fill="#fdfdfd" d="M 63.5,101.5 C 65.0618,101.733 66.3951,102.4 67.5,103.5C 68.5846,105.587 70.2512,106.92 72.5,107.5C 73.1667,108.833 74.1667,109.833 75.5,110.5C 75.8417,111.338 76.5084,111.672 77.5,111.5C 77.8333,112.5 78.5,113.167 79.5,113.5C 82.7781,116.111 85.7781,119.111 88.5,122.5C 86.6404,123.325 84.9738,124.325 83.5,125.5C 81.901,125.232 80.5676,125.566 79.5,126.5C 77.901,126.232 76.5676,126.566 75.5,127.5C 67.5,127.5 59.5,127.5 51.5,127.5C 50.4324,126.566 49.099,126.232 47.5,126.5C 46.4324,125.566 45.099,125.232 43.5,125.5C 42.0262,124.325 40.3596,123.325 38.5,122.5C 38.6236,121.893 38.9569,121.56 39.5,121.5C 40.5,121.167 41.1667,120.5 41.5,119.5C 42.5,119.167 43.1667,118.5 43.5,117.5C 44.7095,117.068 45.7095,116.401 46.5,115.5C 47.1667,115.5 47.5,115.167 47.5,114.5C 48.8333,113.833 49.8333,112.833 50.5,111.5C 55.383,108.891 59.7163,105.557 63.5,101.5 Z"/></g>
<g><path style="opacity:0.005" fill="#000000" d="M 11.5,102.5 C 13.0627,103.945 14.396,105.611 15.5,107.5C 14.1667,107.5 12.8333,107.5 11.5,107.5C 11.5,105.833 11.5,104.167 11.5,102.5 Z"/></g>
<g><path style="opacity:0.009" fill="#000000" d="M 115.5,102.5 C 115.5,104.167 115.5,105.833 115.5,107.5C 114.167,107.5 112.833,107.5 111.5,107.5C 112.604,105.611 113.937,103.945 115.5,102.5 Z"/></g>
<g><path style="opacity:0.008" fill="#000000" d="M 27.5,103.5 C 27.5,104.833 27.5,106.167 27.5,107.5C 25.8333,107.5 24.1667,107.5 22.5,107.5C 23.9448,105.937 25.6115,104.604 27.5,103.5 Z"/></g>
<g><path style="opacity:0.008" fill="#000000" d="M 72.5,107.5 C 73.5,107.5 74.5,107.5 75.5,107.5C 75.5,108.5 75.5,109.5 75.5,110.5C 74.1667,109.833 73.1667,108.833 72.5,107.5 Z"/></g>
<g><path style="opacity:0.004" fill="#000000" d="M 111.5,107.5 C 111.5,108.833 111.5,110.167 111.5,111.5C 109.517,111.843 108.183,111.176 107.5,109.5C 109.062,109.267 110.395,108.6 111.5,107.5 Z"/></g>
<g><path style="opacity:0.004" fill="#000000" d="M 50.5,111.5 C 49.8333,112.833 48.8333,113.833 47.5,114.5C 47.5,113.5 47.5,112.5 47.5,111.5C 48.5,111.5 49.5,111.5 50.5,111.5 Z"/></g>
<g><path style="opacity:0.024" fill="#000000" d="M 77.5,111.5 C 78.8333,111.5 79.5,112.167 79.5,113.5C 78.5,113.167 77.8333,112.5 77.5,111.5 Z"/></g>
<g><path style="opacity:0.012" fill="#000000" d="M 46.5,115.5 C 45.7095,116.401 44.7095,117.068 43.5,117.5C 43.8212,115.952 44.8212,115.285 46.5,115.5 Z"/></g>
<g><path style="opacity:0.004" fill="#000000" d="M 41.5,119.5 C 41.1667,120.5 40.5,121.167 39.5,121.5C 39.5,120.167 40.1667,119.5 41.5,119.5 Z"/></g>
<g><path style="opacity:0.004" fill="#000000" d="M 43.5,125.5 C 45.099,125.232 46.4324,125.566 47.5,126.5C 47.5,126.833 47.5,127.167 47.5,127.5C 46.1667,127.5 44.8333,127.5 43.5,127.5C 43.5,126.833 43.5,126.167 43.5,125.5 Z"/></g>
<g><path style="opacity:0.004" fill="#000000" d="M 83.5,125.5 C 83.5,126.167 83.5,126.833 83.5,127.5C 82.1667,127.5 80.8333,127.5 79.5,127.5C 79.5,127.167 79.5,126.833 79.5,126.5C 80.5676,125.566 81.901,125.232 83.5,125.5 Z"/></g>
</svg>
