<?xml version="1.0" encoding="UTF-8"?>
<!DOCTYPE svg PUBLIC "-//W3C//DTD SVG 1.1//EN" "http://www.w3.org/Graphics/SVG/1.1/DTD/svg11.dtd">
<svg xmlns="http://www.w3.org/2000/svg" version="1.1" width="128px" height="128px" style="shape-rendering:geometricPrecision; text-rendering:geometricPrecision; image-rendering:optimizeQuality; fill-rule:evenodd; clip-rule:evenodd" xmlns:xlink="http://www.w3.org/1999/xlink">
<g><path style="opacity:0.008" fill="#000000" d="M 43.5,-0.5 C 44.8333,-0.5 46.1667,-0.5 47.5,-0.5C 47.5,-0.166667 47.5,0.166667 47.5,0.5C 46.4324,1.43448 45.099,1.76781 43.5,1.5C 43.5,0.833333 43.5,0.166667 43.5,-0.5 Z"/></g>
<g><path style="opacity:0.949" fill="#fefefe" d="M 51.5,-0.5 C 59.5,-0.5 67.5,-0.5 75.5,-0.5C 76.5676,0.434475 77.901,0.767809 79.5,0.5C 80.5676,1.43448 81.901,1.76781 83.5,1.5C 88.0934,2.92078 92.4267,4.92078 96.5,7.5C 97.2905,8.40128 98.2905,9.06795 99.5,9.5C 100.833,10.8333 100.833,12.1667 99.5,13.5C 98.5,13.8333 97.8333,14.5 97.5,15.5C 96.5,15.8333 95.8333,16.5 95.5,17.5C 94.5,17.8333 93.8333,18.5 93.5,19.5C 92.5,19.8333 91.8333,20.5 91.5,21.5C 90.5,21.8333 89.8333,22.5 89.5,23.5C 88.5,23.8333 87.8333,24.5 87.5,25.5C 86.5,25.8333 85.8333,26.5 85.5,27.5C 84.5,27.8333 83.8333,28.5 83.5,29.5C 82.5,29.8333 81.8333,30.5 81.5,31.5C 80.5,31.8333 79.8333,32.5 79.5,33.5C 78.5,33.8333 77.8333,34.5 77.5,35.5C 76.5,35.8333 75.8333,36.5 75.5,37.5C 74.5,37.8333 73.8333,38.5 73.5,39.5C 72.5,39.8333 71.8333,40.5 71.5,41.5C 70.5,41.8333 69.8333,42.5 69.5,43.5C 68.5,43.8333 67.8333,44.5 67.5,45.5C 66.5,45.8333 65.8333,46.5 65.5,47.5C 64.1667,48.8333 62.8333,48.8333 61.5,47.5C 61.1667,46.5 60.5,45.8333 59.5,45.5C 59.1667,44.5 58.5,43.8333 57.5,43.5C 57.1667,42.5 56.5,41.8333 55.5,41.5C 55.1667,40.5 54.5,39.8333 53.5,39.5C 53.1667,38.5 52.5,37.8333 51.5,37.5C 51.1667,36.5 50.5,35.8333 49.5,35.5C 49.1667,34.5 48.5,33.8333 47.5,33.5C 47.1667,32.5 46.5,31.8333 45.5,31.5C 45.1667,30.5 44.5,29.8333 43.5,29.5C 43.1667,28.5 42.5,27.8333 41.5,27.5C 41.1667,26.5 40.5,25.8333 39.5,25.5C 39.1667,24.5 38.5,23.8333 37.5,23.5C 37.1667,22.5 36.5,21.8333 35.5,21.5C 35.1667,20.5 34.5,19.8333 33.5,19.5C 33.1667,18.5 32.5,17.8333 31.5,17.5C 31.1667,16.5 30.5,15.8333 29.5,15.5C 29.1667,14.5 28.5,13.8333 27.5,13.5C 26.1667,12.1667 26.1667,10.8333 27.5,9.5C 28.7095,9.06795 29.7095,8.40128 30.5,7.5C 34.5733,4.92078 38.9066,2.92078 43.5,1.5C 45.099,1.76781 46.4324,1.43448 47.5,0.5C 49.099,0.767809 50.4324,0.434475 51.5,-0.5 Z"/></g>
<g><path style="opacity:0.008" fill="#000000" d="M 79.5,-0.5 C 80.8333,-0.5 82.1667,-0.5 83.5,-0.5C 83.5,0.166667 83.5,0.833333 83.5,1.5C 81.901,1.76781 80.5676,1.43448 79.5,0.5C 79.5,0.166667 79.5,-0.166667 79.5,-0.5 Z"/></g>
<g><path style="opacity:0.02" fill="#000000" d="M 30.5,7.5 C 29.7095,8.40128 28.7095,9.06795 27.5,9.5C 27.8212,7.95186 28.8212,7.28519 30.5,7.5 Z"/></g>
<g><path style="opacity:0.02" fill="#000000" d="M 96.5,7.5 C 98.1788,7.28519 99.1788,7.95186 99.5,9.5C 98.2905,9.06795 97.2905,8.40128 96.5,7.5 Z"/></g>
<g><path style="opacity:0.016" fill="#000000" d="M 27.5,13.5 C 28.5,13.8333 29.1667,14.5 29.5,15.5C 28.1667,15.5 27.5,14.8333 27.5,13.5 Z"/></g>
<g><path style="opacity:0.016" fill="#000000" d="M 99.5,13.5 C 99.5,14.8333 98.8333,15.5 97.5,15.5C 97.8333,14.5 98.5,13.8333 99.5,13.5 Z"/></g>
<g><path style="opacity:0.016" fill="#000000" d="M 31.5,17.5 C 32.5,17.8333 33.1667,18.5 33.5,19.5C 32.1667,19.5 31.5,18.8333 31.5,17.5 Z"/></g>
<g><path style="opacity:0.016" fill="#000000" d="M 95.5,17.5 C 95.5,18.8333 94.8333,19.5 93.5,19.5C 93.8333,18.5 94.5,17.8333 95.5,17.5 Z"/></g>
<g><path style="opacity:0.016" fill="#000000" d="M 35.5,21.5 C 36.5,21.8333 37.1667,22.5 37.5,23.5C 36.1667,23.5 35.5,22.8333 35.5,21.5 Z"/></g>
<g><path style="opacity:0.016" fill="#000000" d="M 91.5,21.5 C 91.5,22.8333 90.8333,23.5 89.5,23.5C 89.8333,22.5 90.5,21.8333 91.5,21.5 Z"/></g>
<g><path style="opacity:0.016" fill="#000000" d="M 39.5,25.5 C 40.5,25.8333 41.1667,26.5 41.5,27.5C 40.1667,27.5 39.5,26.8333 39.5,25.5 Z"/></g>
<g><path style="opacity:0.016" fill="#000000" d="M 87.5,25.5 C 87.5,26.8333 86.8333,27.5 85.5,27.5C 85.8333,26.5 86.5,25.8333 87.5,25.5 Z"/></g>
<g><path style="opacity:0.949" fill="#fefefe" d="M 13.5,27.5 C 13.8333,28.5 14.5,29.1667 15.5,29.5C 15.8333,30.5 16.5,31.1667 17.5,31.5C 17.8333,32.5 18.5,33.1667 19.5,33.5C 19.8333,34.5 20.5,35.1667 21.5,35.5C 21.8333,36.5 22.5,37.1667 23.5,37.5C 23.8333,38.5 24.5,39.1667 25.5,39.5C 25.8333,40.5 26.5,41.1667 27.5,41.5C 27.8333,42.5 28.5,43.1667 29.5,43.5C 29.8333,44.5 30.5,45.1667 31.5,45.5C 31.8333,46.5 32.5,47.1667 33.5,47.5C 33.8333,48.5 34.5,49.1667 35.5,49.5C 35.8333,50.5 36.5,51.1667 37.5,51.5C 37.8333,52.5 38.5,53.1667 39.5,53.5C 39.8333,54.5 40.5,55.1667 41.5,55.5C 41.8333,56.5 42.5,57.1667 43.5,57.5C 43.8333,58.5 44.5,59.1667 45.5,59.5C 45.8333,60.5 46.5,61.1667 47.5,61.5C 48.8333,62.8333 48.8333,64.1667 47.5,65.5C 46.5,65.8333 45.8333,66.5 45.5,67.5C 44.5,67.8333 43.8333,68.5 43.5,69.5C 42.5,69.8333 41.8333,70.5 41.5,71.5C 40.5,71.8333 39.8333,72.5 39.5,73.5C 38.5,73.8333 37.8333,74.5 37.5,75.5C 36.5,75.8333 35.8333,76.5 35.5,77.5C 34.5,77.8333 33.8333,78.5 33.5,79.5C 32.5,79.8333 31.8333,80.5 31.5,81.5C 30.5,81.8333 29.8333,82.5 29.5,83.5C 28.5,83.8333 27.8333,84.5 27.5,85.5C 26.5,85.8333 25.8333,86.5 25.5,87.5C 24.5,87.8333 23.8333,88.5 23.5,89.5C 22.5,89.8333 21.8333,90.5 21.5,91.5C 20.5,91.8333 19.8333,92.5 19.5,93.5C 18.5,93.8333 17.8333,94.5 17.5,95.5C 16.5,95.8333 15.8333,96.5 15.5,97.5C 14.5,97.8333 13.8333,98.5 13.5,99.5C 12.1667,100.833 10.8333,100.833 9.5,99.5C 9.06795,98.2905 8.40128,97.2905 7.5,96.5C 4.92078,92.4267 2.92078,88.0934 1.5,83.5C 1.76781,81.901 1.43448,80.5676 0.5,79.5C 0.767809,77.901 0.434475,76.5676 -0.5,75.5C -0.5,67.5 -0.5,59.5 -0.5,51.5C 0.434475,50.4324 0.767809,49.099 0.5,47.5C 1.43448,46.4324 1.76781,45.099 1.5,43.5C 2.92078,38.9066 4.92078,34.5733 7.5,30.5C 8.40128,29.7095 9.06795,28.7095 9.5,27.5C 10.8333,26.1667 12.1667,26.1667 13.5,27.5 Z"/></g>
<g><path style="opacity:0.949" fill="#fefefe" d="M 117.5,27.5 C 117.932,28.7095 118.599,29.7095 119.5,30.5C 122.079,34.5733 124.079,38.9066 125.5,43.5C 125.232,45.099 125.566,46.4324 126.5,47.5C 126.232,49.099 126.566,50.4324 127.5,51.5C 127.5,59.5 127.5,67.5 127.5,75.5C 126.566,76.5676 126.232,77.901 126.5,79.5C 125.566,80.5676 125.232,81.901 125.5,83.5C 124.079,88.0934 122.079,92.4267 119.5,96.5C 118.599,97.2905 117.932,98.2905 117.5,99.5C 116.167,100.833 114.833,100.833 113.5,99.5C 113.167,98.5 112.5,97.8333 111.5,97.5C 111.167,96.5 110.5,95.8333 109.5,95.5C 109.167,94.5 108.5,93.8333 107.5,93.5C 107.167,92.5 106.5,91.8333 105.5,91.5C 105.167,90.5 104.5,89.8333 103.5,89.5C 103.167,88.5 102.5,87.8333 101.5,87.5C 101.167,86.5 100.5,85.8333 99.5,85.5C 99.1667,84.5 98.5,83.8333 97.5,83.5C 97.1667,82.5 96.5,81.8333 95.5,81.5C 95.1667,80.5 94.5,79.8333 93.5,79.5C 93.1667,78.5 92.5,77.8333 91.5,77.5C 91.1667,76.5 90.5,75.8333 89.5,75.5C 89.1667,74.5 88.5,73.8333 87.5,73.5C 87.1667,72.5 86.5,71.8333 85.5,71.5C 85.1667,70.5 84.5,69.8333 83.5,69.5C 83.1667,68.5 82.5,67.8333 81.5,67.5C 81.1667,66.5 80.5,65.8333 79.5,65.5C 78.1667,64.1667 78.1667,62.8333 79.5,61.5C 80.5,61.1667 81.1667,60.5 81.5,59.5C 82.5,59.1667 83.1667,58.5 83.5,57.5C 84.5,57.1667 85.1667,56.5 85.5,55.5C 86.5,55.1667 87.1667,54.5 87.5,53.5C 88.5,53.1667 89.1667,52.5 89.5,51.5C 90.5,51.1667 91.1667,50.5 91.5,49.5C 92.5,49.1667 93.1667,48.5 93.5,47.5C 94.5,47.1667 95.1667,46.5 95.5,45.5C 96.5,45.1667 97.1667,44.5 97.5,43.5C 98.5,43.1667 99.1667,42.5 99.5,41.5C 100.5,41.1667 101.167,40.5 101.5,39.5C 102.5,39.1667 103.167,38.5 103.5,37.5C 104.5,37.1667 105.167,36.5 105.5,35.5C 106.5,35.1667 107.167,34.5 107.5,33.5C 108.5,33.1667 109.167,32.5 109.5,31.5C 110.5,31.1667 111.167,30.5 111.5,29.5C 112.5,29.1667 113.167,28.5 113.5,27.5C 114.833,26.1667 116.167,26.1667 117.5,27.5 Z"/></g>
<g><path style="opacity:0.02" fill="#000000" d="M 9.5,27.5 C 9.06795,28.7095 8.40128,29.7095 7.5,30.5C 7.28519,28.8212 7.95186,27.8212 9.5,27.5 Z"/></g>
<g><path style="opacity:0.016" fill="#000000" d="M 13.5,27.5 C 14.8333,27.5 15.5,28.1667 15.5,29.5C 14.5,29.1667 13.8333,28.5 13.5,27.5 Z"/></g>
<g><path style="opacity:0.016" fill="#000000" d="M 113.5,27.5 C 113.167,28.5 112.5,29.1667 111.5,29.5C 111.5,28.1667 112.167,27.5 113.5,27.5 Z"/></g>
<g><path style="opacity:0.02" fill="#000000" d="M 117.5,27.5 C 119.048,27.8212 119.715,28.8212 119.5,30.5C 118.599,29.7095 117.932,28.7095 117.5,27.5 Z"/></g>
<g><path style="opacity:0.016" fill="#000000" d="M 43.5,29.5 C 44.5,29.8333 45.1667,30.5 45.5,31.5C 44.1667,31.5 43.5,30.8333 43.5,29.5 Z"/></g>
<g><path style="opacity:0.016" fill="#000000" d="M 83.5,29.5 C 83.5,30.8333 82.8333,31.5 81.5,31.5C 81.8333,30.5 82.5,29.8333 83.5,29.5 Z"/></g>
<g><path style="opacity:0.016" fill="#000000" d="M 17.5,31.5 C 18.8333,31.5 19.5,32.1667 19.5,33.5C 18.5,33.1667 17.8333,32.5 17.5,31.5 Z"/></g>
<g><path style="opacity:0.016" fill="#000000" d="M 109.5,31.5 C 109.167,32.5 108.5,33.1667 107.5,33.5C 107.5,32.1667 108.167,31.5 109.5,31.5 Z"/></g>
<g><path style="opacity:0.016" fill="#000000" d="M 47.5,33.5 C 48.5,33.8333 49.1667,34.5 49.5,35.5C 48.1667,35.5 47.5,34.8333 47.5,33.5 Z"/></g>
<g><path style="opacity:0.016" fill="#000000" d="M 79.5,33.5 C 79.5,34.8333 78.8333,35.5 77.5,35.5C 77.8333,34.5 78.5,33.8333 79.5,33.5 Z"/></g>
<g><path style="opacity:0.016" fill="#000000" d="M 21.5,35.5 C 22.8333,35.5 23.5,36.1667 23.5,37.5C 22.5,37.1667 21.8333,36.5 21.5,35.5 Z"/></g>
<g><path style="opacity:0.016" fill="#000000" d="M 105.5,35.5 C 105.167,36.5 104.5,37.1667 103.5,37.5C 103.5,36.1667 104.167,35.5 105.5,35.5 Z"/></g>
<g><path style="opacity:0.016" fill="#000000" d="M 51.5,37.5 C 52.5,37.8333 53.1667,38.5 53.5,39.5C 52.1667,39.5 51.5,38.8333 51.5,37.5 Z"/></g>
<g><path style="opacity:0.016" fill="#000000" d="M 75.5,37.5 C 75.5,38.8333 74.8333,39.5 73.5,39.5C 73.8333,38.5 74.5,37.8333 75.5,37.5 Z"/></g>
<g><path style="opacity:0.016" fill="#000000" d="M 25.5,39.5 C 26.8333,39.5 27.5,40.1667 27.5,41.5C 26.5,41.1667 25.8333,40.5 25.5,39.5 Z"/></g>
<g><path style="opacity:0.016" fill="#000000" d="M 101.5,39.5 C 101.167,40.5 100.5,41.1667 99.5,41.5C 99.5,40.1667 100.167,39.5 101.5,39.5 Z"/></g>
<g><path style="opacity:0.016" fill="#000000" d="M 55.5,41.5 C 56.5,41.8333 57.1667,42.5 57.5,43.5C 56.1667,43.5 55.5,42.8333 55.5,41.5 Z"/></g>
<g><path style="opacity:0.016" fill="#000000" d="M 71.5,41.5 C 71.5,42.8333 70.8333,43.5 69.5,43.5C 69.8333,42.5 70.5,41.8333 71.5,41.5 Z"/></g>
<g><path style="opacity:0.008" fill="#000000" d="M -0.5,43.5 C 0.166667,43.5 0.833333,43.5 1.5,43.5C 1.76781,45.099 1.43448,46.4324 0.5,47.5C 0.166667,47.5 -0.166667,47.5 -0.5,47.5C -0.5,46.1667 -0.5,44.8333 -0.5,43.5 Z"/></g>
<g><path style="opacity:0.016" fill="#000000" d="M 29.5,43.5 C 30.8333,43.5 31.5,44.1667 31.5,45.5C 30.5,45.1667 29.8333,44.5 29.5,43.5 Z"/></g>
<g><path style="opacity:0.016" fill="#000000" d="M 97.5,43.5 C 97.1667,44.5 96.5,45.1667 95.5,45.5C 95.5,44.1667 96.1667,43.5 97.5,43.5 Z"/></g>
<g><path style="opacity:0.008" fill="#000000" d="M 125.5,43.5 C 126.167,43.5 126.833,43.5 127.5,43.5C 127.5,44.8333 127.5,46.1667 127.5,47.5C 127.167,47.5 126.833,47.5 126.5,47.5C 125.566,46.4324 125.232,45.099 125.5,43.5 Z"/></g>
<g><path style="opacity:0.016" fill="#000000" d="M 59.5,45.5 C 60.5,45.8333 61.1667,46.5 61.5,47.5C 60.1667,47.5 59.5,46.8333 59.5,45.5 Z"/></g>
<g><path style="opacity:0.016" fill="#000000" d="M 67.5,45.5 C 67.5,46.8333 66.8333,47.5 65.5,47.5C 65.8333,46.5 66.5,45.8333 67.5,45.5 Z"/></g>
<g><path style="opacity:0.016" fill="#000000" d="M 33.5,47.5 C 34.8333,47.5 35.5,48.1667 35.5,49.5C 34.5,49.1667 33.8333,48.5 33.5,47.5 Z"/></g>
<g><path style="opacity:0.016" fill="#000000" d="M 93.5,47.5 C 93.1667,48.5 92.5,49.1667 91.5,49.5C 91.5,48.1667 92.1667,47.5 93.5,47.5 Z"/></g>
<g><path style="opacity:0.016" fill="#000000" d="M 37.5,51.5 C 38.8333,51.5 39.5,52.1667 39.5,53.5C 38.5,53.1667 37.8333,52.5 37.5,51.5 Z"/></g>
<g><path style="opacity:0.016" fill="#000000" d="M 89.5,51.5 C 89.1667,52.5 88.5,53.1667 87.5,53.5C 87.5,52.1667 88.1667,51.5 89.5,51.5 Z"/></g>
<g><path style="opacity:0.016" fill="#000000" d="M 41.5,55.5 C 42.8333,55.5 43.5,56.1667 43.5,57.5C 42.5,57.1667 41.8333,56.5 41.5,55.5 Z"/></g>
<g><path style="opacity:0.016" fill="#000000" d="M 85.5,55.5 C 85.1667,56.5 84.5,57.1667 83.5,57.5C 83.5,56.1667 84.1667,55.5 85.5,55.5 Z"/></g>
<g><path style="opacity:0.016" fill="#000000" d="M 45.5,59.5 C 46.8333,59.5 47.5,60.1667 47.5,61.5C 46.5,61.1667 45.8333,60.5 45.5,59.5 Z"/></g>
<g><path style="opacity:0.016" fill="#000000" d="M 81.5,59.5 C 81.1667,60.5 80.5,61.1667 79.5,61.5C 79.5,60.1667 80.1667,59.5 81.5,59.5 Z"/></g>
<g><path style="opacity:0.016" fill="#000000" d="M 47.5,65.5 C 47.5,66.8333 46.8333,67.5 45.5,67.5C 45.8333,66.5 46.5,65.8333 47.5,65.5 Z"/></g>
<g><path style="opacity:0.016" fill="#000000" d="M 79.5,65.5 C 80.5,65.8333 81.1667,66.5 81.5,67.5C 80.1667,67.5 79.5,66.8333 79.5,65.5 Z"/></g>
<g><path style="opacity:0.016" fill="#000000" d="M 43.5,69.5 C 43.5,70.8333 42.8333,71.5 41.5,71.5C 41.8333,70.5 42.5,69.8333 43.5,69.5 Z"/></g>
<g><path style="opacity:0.016" fill="#000000" d="M 83.5,69.5 C 84.5,69.8333 85.1667,70.5 85.5,71.5C 84.1667,71.5 83.5,70.8333 83.5,69.5 Z"/></g>
<g><path style="opacity:0.016" fill="#000000" d="M 39.5,73.5 C 39.5,74.8333 38.8333,75.5 37.5,75.5C 37.8333,74.5 38.5,73.8333 39.5,73.5 Z"/></g>
<g><path style="opacity:0.016" fill="#000000" d="M 87.5,73.5 C 88.5,73.8333 89.1667,74.5 89.5,75.5C 88.1667,75.5 87.5,74.8333 87.5,73.5 Z"/></g>
<g><path style="opacity:0.016" fill="#000000" d="M 35.5,77.5 C 35.5,78.8333 34.8333,79.5 33.5,79.5C 33.8333,78.5 34.5,77.8333 35.5,77.5 Z"/></g>
<g><path style="opacity:0.016" fill="#000000" d="M 91.5,77.5 C 92.5,77.8333 93.1667,78.5 93.5,79.5C 92.1667,79.5 91.5,78.8333 91.5,77.5 Z"/></g>
<g><path style="opacity:0.949" fill="#fefefe" d="M 65.5,79.5 C 65.8333,80.5 66.5,81.1667 67.5,81.5C 67.8333,82.5 68.5,83.1667 69.5,83.5C 69.8333,84.5 70.5,85.1667 71.5,85.5C 71.8333,86.5 72.5,87.1667 73.5,87.5C 73.8333,88.5 74.5,89.1667 75.5,89.5C 75.8333,90.5 76.5,91.1667 77.5,91.5C 77.8333,92.5 78.5,93.1667 79.5,93.5C 79.8333,94.5 80.5,95.1667 81.5,95.5C 81.8333,96.5 82.5,97.1667 83.5,97.5C 83.8333,98.5 84.5,99.1667 85.5,99.5C 85.8333,100.5 86.5,101.167 87.5,101.5C 87.8333,102.5 88.5,103.167 89.5,103.5C 89.8333,104.5 90.5,105.167 91.5,105.5C 91.8333,106.5 92.5,107.167 93.5,107.5C 93.8333,108.5 94.5,109.167 95.5,109.5C 95.8333,110.5 96.5,111.167 97.5,111.5C 97.8333,112.5 98.5,113.167 99.5,113.5C 100.833,114.833 100.833,116.167 99.5,117.5C 98.2905,117.932 97.2905,118.599 96.5,119.5C 92.4267,122.079 88.0934,124.079 83.5,125.5C 81.901,125.232 80.5676,125.566 79.5,126.5C 77.901,126.232 76.5676,126.566 75.5,127.5C 67.5,127.5 59.5,127.5 51.5,127.5C 50.4324,126.566 49.099,126.232 47.5,126.5C 46.4324,125.566 45.099,125.232 43.5,125.5C 38.9066,124.079 34.5733,122.079 30.5,119.5C 29.7095,118.599 28.7095,117.932 27.5,117.5C 26.1667,116.167 26.1667,114.833 27.5,113.5C 28.5,113.167 29.1667,112.5 29.5,111.5C 30.5,111.167 31.1667,110.5 31.5,109.5C 32.5,109.167 33.1667,108.5 33.5,107.5C 34.5,107.167 35.1667,106.5 35.5,105.5C 36.5,105.167 37.1667,104.5 37.5,103.5C 38.5,103.167 39.1667,102.5 39.5,101.5C 40.5,101.167 41.1667,100.5 41.5,99.5C 42.5,99.1667 43.1667,98.5 43.5,97.5C 44.5,97.1667 45.1667,96.5 45.5,95.5C 46.5,95.1667 47.1667,94.5 47.5,93.5C 48.5,93.1667 49.1667,92.5 49.5,91.5C 50.5,91.1667 51.1667,90.5 51.5,89.5C 52.5,89.1667 53.1667,88.5 53.5,87.5C 54.5,87.1667 55.1667,86.5 55.5,85.5C 56.5,85.1667 57.1667,84.5 57.5,83.5C 58.5,83.1667 59.1667,82.5 59.5,81.5C 60.5,81.1667 61.1667,80.5 61.5,79.5C 62.8333,78.1667 64.1667,78.1667 65.5,79.5 Z"/></g>
<g><path style="opacity:0.008" fill="#000000" d="M -0.5,79.5 C -0.166667,79.5 0.166667,79.5 0.5,79.5C 1.43448,80.5676 1.76781,81.901 1.5,83.5C 0.833333,83.5 0.166667,83.5 -0.5,83.5C -0.5,82.1667 -0.5,80.8333 -0.5,79.5 Z"/></g>
<g><path style="opacity:0.016" fill="#000000" d="M 61.5,79.5 C 61.1667,80.5 60.5,81.1667 59.5,81.5C 59.5,80.1667 60.1667,79.5 61.5,79.5 Z"/></g>
<g><path style="opacity:0.016" fill="#000000" d="M 65.5,79.5 C 66.8333,79.5 67.5,80.1667 67.5,81.5C 66.5,81.1667 65.8333,80.5 65.5,79.5 Z"/></g>
<g><path style="opacity:0.008" fill="#000000" d="M 126.5,79.5 C 126.833,79.5 127.167,79.5 127.5,79.5C 127.5,80.8333 127.5,82.1667 127.5,83.5C 126.833,83.5 126.167,83.5 125.5,83.5C 125.232,81.901 125.566,80.5676 126.5,79.5 Z"/></g>
<g><path style="opacity:0.016" fill="#000000" d="M 31.5,81.5 C 31.5,82.8333 30.8333,83.5 29.5,83.5C 29.8333,82.5 30.5,81.8333 31.5,81.5 Z"/></g>
<g><path style="opacity:0.016" fill="#000000" d="M 95.5,81.5 C 96.5,81.8333 97.1667,82.5 97.5,83.5C 96.1667,83.5 95.5,82.8333 95.5,81.5 Z"/></g>
<g><path style="opacity:0.016" fill="#000000" d="M 57.5,83.5 C 57.1667,84.5 56.5,85.1667 55.5,85.5C 55.5,84.1667 56.1667,83.5 57.5,83.5 Z"/></g>
<g><path style="opacity:0.016" fill="#000000" d="M 69.5,83.5 C 70.8333,83.5 71.5,84.1667 71.5,85.5C 70.5,85.1667 69.8333,84.5 69.5,83.5 Z"/></g>
<g><path style="opacity:0.016" fill="#000000" d="M 27.5,85.5 C 27.5,86.8333 26.8333,87.5 25.5,87.5C 25.8333,86.5 26.5,85.8333 27.5,85.5 Z"/></g>
<g><path style="opacity:0.016" fill="#000000" d="M 99.5,85.5 C 100.5,85.8333 101.167,86.5 101.5,87.5C 100.167,87.5 99.5,86.8333 99.5,85.5 Z"/></g>
<g><path style="opacity:0.016" fill="#000000" d="M 53.5,87.5 C 53.1667,88.5 52.5,89.1667 51.5,89.5C 51.5,88.1667 52.1667,87.5 53.5,87.5 Z"/></g>
<g><path style="opacity:0.016" fill="#000000" d="M 73.5,87.5 C 74.8333,87.5 75.5,88.1667 75.5,89.5C 74.5,89.1667 73.8333,88.5 73.5,87.5 Z"/></g>
<g><path style="opacity:0.016" fill="#000000" d="M 23.5,89.5 C 23.5,90.8333 22.8333,91.5 21.5,91.5C 21.8333,90.5 22.5,89.8333 23.5,89.5 Z"/></g>
<g><path style="opacity:0.016" fill="#000000" d="M 103.5,89.5 C 104.5,89.8333 105.167,90.5 105.5,91.5C 104.167,91.5 103.5,90.8333 103.5,89.5 Z"/></g>
<g><path style="opacity:0.016" fill="#000000" d="M 49.5,91.5 C 49.1667,92.5 48.5,93.1667 47.5,93.5C 47.5,92.1667 48.1667,91.5 49.5,91.5 Z"/></g>
<g><path style="opacity:0.016" fill="#000000" d="M 77.5,91.5 C 78.8333,91.5 79.5,92.1667 79.5,93.5C 78.5,93.1667 77.8333,92.5 77.5,91.5 Z"/></g>
<g><path style="opacity:0.016" fill="#000000" d="M 19.5,93.5 C 19.5,94.8333 18.8333,95.5 17.5,95.5C 17.8333,94.5 18.5,93.8333 19.5,93.5 Z"/></g>
<g><path style="opacity:0.016" fill="#000000" d="M 107.5,93.5 C 108.5,93.8333 109.167,94.5 109.5,95.5C 108.167,95.5 107.5,94.8333 107.5,93.5 Z"/></g>
<g><path style="opacity:0.016" fill="#000000" d="M 45.5,95.5 C 45.1667,96.5 44.5,97.1667 43.5,97.5C 43.5,96.1667 44.1667,95.5 45.5,95.5 Z"/></g>
<g><path style="opacity:0.016" fill="#000000" d="M 81.5,95.5 C 82.8333,95.5 83.5,96.1667 83.5,97.5C 82.5,97.1667 81.8333,96.5 81.5,95.5 Z"/></g>
<g><path style="opacity:0.02" fill="#000000" d="M 7.5,96.5 C 8.40128,97.2905 9.06795,98.2905 9.5,99.5C 7.95186,99.1788 7.28519,98.1788 7.5,96.5 Z"/></g>
<g><path style="opacity:0.02" fill="#000000" d="M 119.5,96.5 C 119.715,98.1788 119.048,99.1788 117.5,99.5C 117.932,98.2905 118.599,97.2905 119.5,96.5 Z"/></g>
<g><path style="opacity:0.016" fill="#000000" d="M 15.5,97.5 C 15.5,98.8333 14.8333,99.5 13.5,99.5C 13.8333,98.5 14.5,97.8333 15.5,97.5 Z"/></g>
<g><path style="opacity:0.016" fill="#000000" d="M 111.5,97.5 C 112.5,97.8333 113.167,98.5 113.5,99.5C 112.167,99.5 111.5,98.8333 111.5,97.5 Z"/></g>
<g><path style="opacity:0.016" fill="#000000" d="M 41.5,99.5 C 41.1667,100.5 40.5,101.167 39.5,101.5C 39.5,100.167 40.1667,99.5 41.5,99.5 Z"/></g>
<g><path style="opacity:0.016" fill="#000000" d="M 85.5,99.5 C 86.8333,99.5 87.5,100.167 87.5,101.5C 86.5,101.167 85.8333,100.5 85.5,99.5 Z"/></g>
<g><path style="opacity:0.016" fill="#000000" d="M 37.5,103.5 C 37.1667,104.5 36.5,105.167 35.5,105.5C 35.5,104.167 36.1667,103.5 37.5,103.5 Z"/></g>
<g><path style="opacity:0.016" fill="#000000" d="M 89.5,103.5 C 90.8333,103.5 91.5,104.167 91.5,105.5C 90.5,105.167 89.8333,104.5 89.5,103.5 Z"/></g>
<g><path style="opacity:0.016" fill="#000000" d="M 33.5,107.5 C 33.1667,108.5 32.5,109.167 31.5,109.5C 31.5,108.167 32.1667,107.5 33.5,107.5 Z"/></g>
<g><path style="opacity:0.016" fill="#000000" d="M 93.5,107.5 C 94.8333,107.5 95.5,108.167 95.5,109.5C 94.5,109.167 93.8333,108.5 93.5,107.5 Z"/></g>
<g><path style="opacity:0.016" fill="#000000" d="M 29.5,111.5 C 29.1667,112.5 28.5,113.167 27.5,113.5C 27.5,112.167 28.1667,111.5 29.5,111.5 Z"/></g>
<g><path style="opacity:0.016" fill="#000000" d="M 97.5,111.5 C 98.8333,111.5 99.5,112.167 99.5,113.5C 98.5,113.167 97.8333,112.5 97.5,111.5 Z"/></g>
<g><path style="opacity:0.02" fill="#000000" d="M 27.5,117.5 C 28.7095,117.932 29.7095,118.599 30.5,119.5C 28.8212,119.715 27.8212,119.048 27.5,117.5 Z"/></g>
<g><path style="opacity:0.02" fill="#000000" d="M 99.5,117.5 C 99.1788,119.048 98.1788,119.715 96.5,119.5C 97.2905,118.599 98.2905,117.932 99.5,117.5 Z"/></g>
<g><path style="opacity:0.008" fill="#000000" d="M 43.5,125.5 C 45.099,125.232 46.4324,125.566 47.5,126.5C 47.5,126.833 47.5,127.167 47.5,127.5C 46.1667,127.5 44.8333,127.5 43.5,127.5C 43.5,126.833 43.5,126.167 43.5,125.5 Z"/></g>
<g><path style="opacity:0.008" fill="#000000" d="M 83.5,125.5 C 83.5,126.167 83.5,126.833 83.5,127.5C 82.1667,127.5 80.8333,127.5 79.5,127.5C 79.5,127.167 79.5,126.833 79.5,126.5C 80.5676,125.566 81.901,125.232 83.5,125.5 Z"/></g>
</svg>
