<?xml version="1.0" encoding="UTF-8"?>
<!DOCTYPE svg PUBLIC "-//W3C//DTD SVG 1.1//EN" "http://www.w3.org/Graphics/SVG/1.1/DTD/svg11.dtd">
<svg xmlns="http://www.w3.org/2000/svg" version="1.1" width="128px" height="128px" style="shape-rendering:geometricPrecision; text-rendering:geometricPrecision; image-rendering:optimizeQuality; fill-rule:evenodd; clip-rule:evenodd" xmlns:xlink="http://www.w3.org/1999/xlink">
<g><path style="opacity:0.958" fill="#fefefe" d="M 63.5,-0.5 C 67.5,-0.5 71.5,-0.5 75.5,-0.5C 76.5676,0.434475 77.901,0.767809 79.5,0.5C 80.5676,1.43448 81.901,1.76781 83.5,1.5C 84.7804,2.93127 86.4471,3.59794 88.5,3.5C 90.9287,4.55117 93.262,5.8845 95.5,7.5C 95.8333,7.5 96.1667,7.5 96.5,7.5C 97.2905,8.40128 98.2905,9.06795 99.5,9.5C 100.29,10.4013 101.29,11.0679 102.5,11.5C 103.945,13.0627 105.611,14.396 107.5,15.5C 108.5,17.1667 109.833,18.5 111.5,19.5C 112.604,21.3885 113.937,23.0552 115.5,24.5C 115.932,25.7095 116.599,26.7095 117.5,27.5C 117.932,28.7095 118.599,29.7095 119.5,30.5C 119.5,30.8333 119.5,31.1667 119.5,31.5C 121.116,33.738 122.449,36.0713 123.5,38.5C 123.402,40.5529 124.069,42.2196 125.5,43.5C 125.232,45.099 125.566,46.4324 126.5,47.5C 126.232,49.099 126.566,50.4324 127.5,51.5C 127.5,59.5 127.5,67.5 127.5,75.5C 126.566,76.5676 126.232,77.901 126.5,79.5C 125.566,80.5676 125.232,81.901 125.5,83.5C 124.069,84.7804 123.402,86.4471 123.5,88.5C 122.449,90.9287 121.116,93.262 119.5,95.5C 119.5,95.8333 119.5,96.1667 119.5,96.5C 118.599,97.2905 117.932,98.2905 117.5,99.5C 116.599,100.29 115.932,101.29 115.5,102.5C 113.937,103.945 112.604,105.611 111.5,107.5C 109.833,108.5 108.5,109.833 107.5,111.5C 105.611,112.604 103.945,113.937 102.5,115.5C 101.29,115.932 100.29,116.599 99.5,117.5C 98.2905,117.932 97.2905,118.599 96.5,119.5C 96.1667,119.5 95.8333,119.5 95.5,119.5C 93.262,121.116 90.9287,122.449 88.5,123.5C 87.5116,122.205 86.5116,120.872 85.5,119.5C 85.1667,118.5 84.5,117.833 83.5,117.5C 83.6716,116.508 83.3382,115.842 82.5,115.5C 81.8897,113.566 80.8897,111.899 79.5,110.5C 79.573,108.973 78.9063,107.973 77.5,107.5C 77.573,105.973 76.9063,104.973 75.5,104.5C 72.4155,98.6608 69.0821,92.9942 65.5,87.5C 65.0679,86.2905 64.4013,85.2905 63.5,84.5C 63.5,83.8333 63.1667,83.5 62.5,83.5C 62.2671,81.9382 61.6005,80.6049 60.5,79.5C 59.6394,77.6137 58.6394,75.7804 57.5,74C 74.1633,73.5001 90.83,73.3334 107.5,73.5C 107.747,71.1417 107.081,69.1417 105.5,67.5C 105.167,66.5 104.5,65.8333 103.5,65.5C 98.6471,56.4454 93.3138,47.7787 87.5,39.5C 87.2671,37.9382 86.6005,36.6049 85.5,35.5C 83.3163,31.1189 80.6496,27.1189 77.5,23.5C 77.573,21.9731 76.9063,20.9731 75.5,20.5C 71.784,13.409 67.784,6.409 63.5,-0.5 Z"/></g>
<g><path style="opacity:0.004" fill="#000000" d="M 79.5,-0.5 C 80.8333,-0.5 82.1667,-0.5 83.5,-0.5C 83.5,0.166667 83.5,0.833333 83.5,1.5C 81.901,1.76781 80.5676,1.43448 79.5,0.5C 79.5,0.166667 79.5,-0.166667 79.5,-0.5 Z"/></g>
<g><path style="opacity:0.951" fill="#fefefe" d="M 49.5,15.5 C 49.427,17.0269 50.0937,18.0269 51.5,18.5C 55.0668,25.9654 59.4002,32.9654 64.5,39.5C 64.7497,41.674 65.7497,43.3406 67.5,44.5C 68.5515,47.1931 69.5515,49.8598 70.5,52.5C 54.8333,52.5 39.1667,52.5 23.5,52.5C 22.325,52.281 21.325,52.6143 20.5,53.5C 21.0351,55.261 22.0351,56.5943 23.5,57.5C 23.3284,58.4916 23.6618,59.1583 24.5,59.5C 25.1103,61.4341 26.1103,63.1007 27.5,64.5C 27.427,66.0269 28.0937,67.0269 29.5,67.5C 29.427,69.0269 30.0937,70.0269 31.5,70.5C 34.5845,76.3392 37.9179,82.0058 41.5,87.5C 41.9321,88.7095 42.5987,89.7095 43.5,90.5C 43.5,91.1667 43.8333,91.5 44.5,91.5C 44.7329,93.0618 45.3995,94.3951 46.5,95.5C 47.0256,97.2303 48.0256,98.5637 49.5,99.5C 49.427,101.027 50.0937,102.027 51.5,102.5C 52.974,105.691 54.6406,108.691 56.5,111.5C 57.0256,113.23 58.0256,114.564 59.5,115.5C 59.6596,117.153 60.3263,118.486 61.5,119.5C 61.9321,120.71 62.5987,121.71 63.5,122.5C 64.1667,124.167 64.8333,125.833 65.5,127.5C 60.8333,127.5 56.1667,127.5 51.5,127.5C 50.4324,126.566 49.099,126.232 47.5,126.5C 46.4324,125.566 45.099,125.232 43.5,125.5C 42.2196,124.069 40.5529,123.402 38.5,123.5C 36.0713,122.449 33.738,121.116 31.5,119.5C 31.1667,119.5 30.8333,119.5 30.5,119.5C 29.7095,118.599 28.7095,117.932 27.5,117.5C 26.7095,116.599 25.7095,115.932 24.5,115.5C 23.0552,113.937 21.3885,112.604 19.5,111.5C 18.5,109.833 17.1667,108.5 15.5,107.5C 14.396,105.611 13.0627,103.945 11.5,102.5C 11.0679,101.29 10.4013,100.29 9.5,99.5C 9.06795,98.2905 8.40128,97.2905 7.5,96.5C 7.5,96.1667 7.5,95.8333 7.5,95.5C 5.8845,93.262 4.55117,90.9287 3.5,88.5C 3.59794,86.4471 2.93127,84.7804 1.5,83.5C 1.76781,81.901 1.43448,80.5676 0.5,79.5C 0.767809,77.901 0.434475,76.5676 -0.5,75.5C -0.5,67.5 -0.5,59.5 -0.5,51.5C 0.434475,50.4324 0.767809,49.099 0.5,47.5C 1.43448,46.4324 1.76781,45.099 1.5,43.5C 2.93127,42.2196 3.59794,40.5529 3.5,38.5C 4.55117,36.0713 5.8845,33.738 7.5,31.5C 7.5,31.1667 7.5,30.8333 7.5,30.5C 8.40128,29.7095 9.06795,28.7095 9.5,27.5C 10.4013,26.7095 11.0679,25.7095 11.5,24.5C 13.0627,23.0552 14.396,21.3885 15.5,19.5C 17.1667,18.5 18.5,17.1667 19.5,15.5C 21.3885,14.396 23.0552,13.0627 24.5,11.5C 25.7095,11.0679 26.7095,10.4013 27.5,9.5C 28.7095,9.06795 29.7095,8.40128 30.5,7.5C 33.4197,6.55758 36.0864,5.22424 38.5,3.5C 39.5,3.66667 40.5,3.83333 41.5,4C 43.8194,8.16164 46.4861,11.995 49.5,15.5 Z"/></g>
<g><path style="opacity:0.006" fill="#000000" d="M 88.5,3.5 C 90.8333,3.5 93.1667,3.5 95.5,3.5C 95.5,4.83333 95.5,6.16667 95.5,7.5C 93.262,5.8845 90.9287,4.55117 88.5,3.5 Z"/></g>
<g><path style="opacity:0.02" fill="#000000" d="M 30.5,7.5 C 29.7095,8.40128 28.7095,9.06795 27.5,9.5C 27.8212,7.95186 28.8212,7.28519 30.5,7.5 Z"/></g>
<g><path style="opacity:0.02" fill="#000000" d="M 96.5,7.5 C 98.1788,7.28519 99.1788,7.95186 99.5,9.5C 98.2905,9.06795 97.2905,8.40128 96.5,7.5 Z"/></g>
<g><path style="opacity:0.005" fill="#000000" d="M 24.5,11.5 C 23.0552,13.0627 21.3885,14.396 19.5,15.5C 19.5,14.1667 19.5,12.8333 19.5,11.5C 21.1667,11.5 22.8333,11.5 24.5,11.5 Z"/></g>
<g><path style="opacity:0.005" fill="#000000" d="M 102.5,11.5 C 104.167,11.5 105.833,11.5 107.5,11.5C 107.5,12.8333 107.5,14.1667 107.5,15.5C 105.611,14.396 103.945,13.0627 102.5,11.5 Z"/></g>
<g><path style="opacity:0.008" fill="#000000" d="M 49.5,15.5 C 51.0481,15.8212 51.7148,16.8212 51.5,18.5C 50.0937,18.0269 49.427,17.0269 49.5,15.5 Z"/></g>
<g><path style="opacity:0.005" fill="#000000" d="M 15.5,19.5 C 14.396,21.3885 13.0627,23.0552 11.5,24.5C 11.5,22.8333 11.5,21.1667 11.5,19.5C 12.8333,19.5 14.1667,19.5 15.5,19.5 Z"/></g>
<g><path style="opacity:0.005" fill="#000000" d="M 111.5,19.5 C 112.833,19.5 114.167,19.5 115.5,19.5C 115.5,21.1667 115.5,22.8333 115.5,24.5C 113.937,23.0552 112.604,21.3885 111.5,19.5 Z"/></g>
<g><path style="opacity:0.008" fill="#000000" d="M 75.5,20.5 C 76.9063,20.9731 77.573,21.9731 77.5,23.5C 75.9519,23.1788 75.2852,22.1788 75.5,20.5 Z"/></g>
<g><path style="opacity:0.02" fill="#000000" d="M 9.5,27.5 C 9.06795,28.7095 8.40128,29.7095 7.5,30.5C 7.28519,28.8212 7.95186,27.8212 9.5,27.5 Z"/></g>
<g><path style="opacity:0.02" fill="#000000" d="M 117.5,27.5 C 119.048,27.8212 119.715,28.8212 119.5,30.5C 118.599,29.7095 117.932,28.7095 117.5,27.5 Z"/></g>
<g><path style="opacity:0.006" fill="#000000" d="M 7.5,31.5 C 5.8845,33.738 4.55117,36.0713 3.5,38.5C 3.5,36.1667 3.5,33.8333 3.5,31.5C 4.83333,31.5 6.16667,31.5 7.5,31.5 Z"/></g>
<g><path style="opacity:0.006" fill="#000000" d="M 119.5,31.5 C 120.833,31.5 122.167,31.5 123.5,31.5C 123.5,33.8333 123.5,36.1667 123.5,38.5C 122.449,36.0713 121.116,33.738 119.5,31.5 Z"/></g>
<g><path style="opacity:0.004" fill="#000000" d="M 85.5,35.5 C 86.6005,36.6049 87.2671,37.9382 87.5,39.5C 86.1667,39.5 84.8333,39.5 83.5,39.5C 83.1568,37.5168 83.8235,36.1834 85.5,35.5 Z"/></g>
<g><path style="opacity:0.007" fill="#000000" d="M 64.5,39.5 C 65.5,39.5 66.5,39.5 67.5,39.5C 67.5,41.1667 67.5,42.8333 67.5,44.5C 65.7497,43.3406 64.7497,41.674 64.5,39.5 Z"/></g>
<g><path style="opacity:0.004" fill="#000000" d="M -0.5,43.5 C 0.166667,43.5 0.833333,43.5 1.5,43.5C 1.76781,45.099 1.43448,46.4324 0.5,47.5C 0.166667,47.5 -0.166667,47.5 -0.5,47.5C -0.5,46.1667 -0.5,44.8333 -0.5,43.5 Z"/></g>
<g><path style="opacity:0.004" fill="#000000" d="M 125.5,43.5 C 126.167,43.5 126.833,43.5 127.5,43.5C 127.5,44.8333 127.5,46.1667 127.5,47.5C 127.167,47.5 126.833,47.5 126.5,47.5C 125.566,46.4324 125.232,45.099 125.5,43.5 Z"/></g>
<g><path style="opacity:0.016" fill="#000000" d="M 23.5,52.5 C 23.5,54.1667 23.5,55.8333 23.5,57.5C 22.0351,56.5943 21.0351,55.261 20.5,53.5C 21.325,52.6143 22.325,52.281 23.5,52.5 Z"/></g>
<g><path style="opacity:0.01" fill="#000000" d="M 24.5,59.5 C 25.5,59.5 26.5,59.5 27.5,59.5C 27.5,61.1667 27.5,62.8333 27.5,64.5C 26.1103,63.1007 25.1103,61.4341 24.5,59.5 Z"/></g>
<g><path style="opacity:0.016" fill="#000000" d="M 103.5,65.5 C 104.5,65.8333 105.167,66.5 105.5,67.5C 104.167,67.5 103.5,66.8333 103.5,65.5 Z"/></g>
<g><path style="opacity:0.004" fill="#000000" d="M 29.5,67.5 C 31.0481,67.8212 31.7148,68.8212 31.5,70.5C 30.0937,70.0269 29.427,69.0269 29.5,67.5 Z"/></g>
<g><path style="opacity:0.004" fill="#000000" d="M -0.5,79.5 C -0.166667,79.5 0.166667,79.5 0.5,79.5C 1.43448,80.5676 1.76781,81.901 1.5,83.5C 0.833333,83.5 0.166667,83.5 -0.5,83.5C -0.5,82.1667 -0.5,80.8333 -0.5,79.5 Z"/></g>
<g><path style="opacity:0.008" fill="#000000" d="M 60.5,79.5 C 61.6005,80.6049 62.2671,81.9382 62.5,83.5C 61.5,83.5 60.5,83.5 59.5,83.5C 59.2322,81.901 59.5655,80.5676 60.5,79.5 Z"/></g>
<g><path style="opacity:0.004" fill="#000000" d="M 126.5,79.5 C 126.833,79.5 127.167,79.5 127.5,79.5C 127.5,80.8333 127.5,82.1667 127.5,83.5C 126.833,83.5 126.167,83.5 125.5,83.5C 125.232,81.901 125.566,80.5676 126.5,79.5 Z"/></g>
<g><path style="opacity:0.004" fill="#000000" d="M 63.5,84.5 C 64.4013,85.2905 65.0679,86.2905 65.5,87.5C 63.9519,87.1788 63.2852,86.1788 63.5,84.5 Z"/></g>
<g><path style="opacity:0.004" fill="#000000" d="M 41.5,87.5 C 43.0481,87.8212 43.7148,88.8212 43.5,90.5C 42.5987,89.7095 41.9321,88.7095 41.5,87.5 Z"/></g>
<g><path style="opacity:0.005" fill="#000000" d="M 3.5,88.5 C 4.55117,90.9287 5.8845,93.262 7.5,95.5C 6.16667,95.5 4.83333,95.5 3.5,95.5C 3.5,93.1667 3.5,90.8333 3.5,88.5 Z"/></g>
<g><path style="opacity:0.005" fill="#000000" d="M 123.5,88.5 C 123.5,90.8333 123.5,93.1667 123.5,95.5C 122.167,95.5 120.833,95.5 119.5,95.5C 121.116,93.262 122.449,90.9287 123.5,88.5 Z"/></g>
<g><path style="opacity:0.008" fill="#000000" d="M 44.5,91.5 C 45.5,91.5 46.5,91.5 47.5,91.5C 47.7678,93.099 47.4345,94.4324 46.5,95.5C 45.3995,94.3951 44.7329,93.0618 44.5,91.5 Z"/></g>
<g><path style="opacity:0.02" fill="#000000" d="M 7.5,96.5 C 8.40128,97.2905 9.06795,98.2905 9.5,99.5C 7.95186,99.1788 7.28519,98.1788 7.5,96.5 Z"/></g>
<g><path style="opacity:0.02" fill="#000000" d="M 119.5,96.5 C 119.715,98.1788 119.048,99.1788 117.5,99.5C 117.932,98.2905 118.599,97.2905 119.5,96.5 Z"/></g>
<g><path style="opacity:0.004" fill="#000000" d="M 49.5,99.5 C 51.0481,99.8212 51.7148,100.821 51.5,102.5C 50.0937,102.027 49.427,101.027 49.5,99.5 Z"/></g>
<g><path style="opacity:0.005" fill="#000000" d="M 11.5,102.5 C 13.0627,103.945 14.396,105.611 15.5,107.5C 14.1667,107.5 12.8333,107.5 11.5,107.5C 11.5,105.833 11.5,104.167 11.5,102.5 Z"/></g>
<g><path style="opacity:0.005" fill="#000000" d="M 115.5,102.5 C 115.5,104.167 115.5,105.833 115.5,107.5C 114.167,107.5 112.833,107.5 111.5,107.5C 112.604,105.611 113.937,103.945 115.5,102.5 Z"/></g>
<g><path style="opacity:0.004" fill="#000000" d="M 75.5,104.5 C 76.9063,104.973 77.573,105.973 77.5,107.5C 75.9519,107.179 75.2852,106.179 75.5,104.5 Z"/></g>
<g><path style="opacity:0.01" fill="#000000" d="M 79.5,110.5 C 80.8897,111.899 81.8897,113.566 82.5,115.5C 81.5,115.5 80.5,115.5 79.5,115.5C 79.5,113.833 79.5,112.167 79.5,110.5 Z"/></g>
<g><path style="opacity:0.005" fill="#000000" d="M 19.5,111.5 C 21.3885,112.604 23.0552,113.937 24.5,115.5C 22.8333,115.5 21.1667,115.5 19.5,115.5C 19.5,114.167 19.5,112.833 19.5,111.5 Z"/></g>
<g><path style="opacity:0.016" fill="#000000" d="M 56.5,111.5 C 57.5,111.5 58.5,111.5 59.5,111.5C 59.5,112.833 59.5,114.167 59.5,115.5C 58.0256,114.564 57.0256,113.23 56.5,111.5 Z"/></g>
<g><path style="opacity:0.005" fill="#000000" d="M 107.5,111.5 C 107.5,112.833 107.5,114.167 107.5,115.5C 105.833,115.5 104.167,115.5 102.5,115.5C 103.945,113.937 105.611,112.604 107.5,111.5 Z"/></g>
<g><path style="opacity:0.02" fill="#000000" d="M 27.5,117.5 C 28.7095,117.932 29.7095,118.599 30.5,119.5C 28.8212,119.715 27.8212,119.048 27.5,117.5 Z"/></g>
<g><path style="opacity:0.008" fill="#000000" d="M 83.5,117.5 C 84.5,117.833 85.1667,118.5 85.5,119.5C 84.1667,119.5 83.5,118.833 83.5,117.5 Z"/></g>
<g><path style="opacity:0.02" fill="#000000" d="M 99.5,117.5 C 99.1788,119.048 98.1788,119.715 96.5,119.5C 97.2905,118.599 98.2905,117.932 99.5,117.5 Z"/></g>
<g><path style="opacity:0.005" fill="#000000" d="M 31.5,119.5 C 33.738,121.116 36.0713,122.449 38.5,123.5C 36.1667,123.5 33.8333,123.5 31.5,123.5C 31.5,122.167 31.5,120.833 31.5,119.5 Z"/></g>
<g><path style="opacity:0.012" fill="#000000" d="M 61.5,119.5 C 63.0481,119.821 63.7148,120.821 63.5,122.5C 62.5987,121.71 61.9321,120.71 61.5,119.5 Z"/></g>
<g><path style="opacity:0.005" fill="#000000" d="M 95.5,119.5 C 95.5,120.833 95.5,122.167 95.5,123.5C 93.1667,123.5 90.8333,123.5 88.5,123.5C 90.9287,122.449 93.262,121.116 95.5,119.5 Z"/></g>
<g><path style="opacity:0.004" fill="#000000" d="M 43.5,125.5 C 45.099,125.232 46.4324,125.566 47.5,126.5C 47.5,126.833 47.5,127.167 47.5,127.5C 46.1667,127.5 44.8333,127.5 43.5,127.5C 43.5,126.833 43.5,126.167 43.5,125.5 Z"/></g>
</svg>
