<?xml version="1.0" encoding="UTF-8"?>
<!DOCTYPE svg PUBLIC "-//W3C//DTD SVG 1.1//EN" "http://www.w3.org/Graphics/SVG/1.1/DTD/svg11.dtd">
<svg xmlns="http://www.w3.org/2000/svg" version="1.1" width="128px" height="127px" style="shape-rendering:geometricPrecision; text-rendering:geometricPrecision; image-rendering:optimizeQuality; fill-rule:evenodd; clip-rule:evenodd" xmlns:xlink="http://www.w3.org/1999/xlink">
<g><path style="opacity:0.937" fill="#fefffe" d="M 51.5,-0.5 C 59.5,-0.5 67.5,-0.5 75.5,-0.5C 90.6414,2.95411 103.308,10.6208 113.5,22.5C 80.1667,23.8333 46.8333,23.8333 13.5,22.5C 23.692,10.6208 36.3586,2.95411 51.5,-0.5 Z"/></g>
<g><path style="opacity:0.933" fill="#fefffe" d="M 55.5,126.5 C 53.5,126.5 51.5,126.5 49.5,126.5C 22.3184,119.318 5.65174,101.984 -0.5,74.5C -0.5,66.8333 -0.5,59.1667 -0.5,51.5C 0.551479,47.0246 2.21815,42.6913 4.5,38.5C 22.0285,67.561 39.0285,96.8943 55.5,126.5 Z"/></g>
<g><path style="opacity:0.932" fill="#fefffe" d="M 127.5,51.5 C 127.5,59.1667 127.5,66.8333 127.5,74.5C 121.348,101.984 104.682,119.318 77.5,126.5C 75.5,126.5 73.5,126.5 71.5,126.5C 88.139,97.5171 104.806,68.5171 121.5,39.5C 122.167,38.1667 122.833,38.1667 123.5,39.5C 125.072,43.5504 126.406,47.5504 127.5,51.5 Z"/></g>
<g><path style="opacity:0.941" fill="#fefffe" d="M 32.5,45.5 C 53.0039,44.1719 73.6706,44.1719 94.5,45.5C 84.6555,63.1997 74.3221,80.533 63.5,97.5C 53.1406,80.1033 42.8073,62.77 32.5,45.5 Z"/></g>
</svg>
